<svg width="1307" height="1307" viewBox="0 0 1307 1307" fill="none" xmlns="http://www.w3.org/2000/svg">
<rect x="12.5" y="12.5" width="289.515" height="289.515" rx="82.5" stroke="black" stroke-width="25"/>
<rect x="343.328" y="12.5" width="289.515" height="289.515" rx="82.5" stroke="black" stroke-width="25"/>
<rect x="674.156" y="12.5" width="289.515" height="289.515" rx="82.5" stroke="black" stroke-width="25"/>
<rect x="12.5" y="674.156" width="289.515" height="289.515" rx="82.5" stroke="black" stroke-width="25"/>
<rect x="343.328" y="674.156" width="289.515" height="289.515" rx="82.5" stroke="black" stroke-width="25"/>
<rect x="674.156" y="674.156" width="289.515" height="289.515" rx="82.5" stroke="black" stroke-width="25"/>
<rect x="12.5" y="1004.98" width="289.515" height="289.515" rx="82.5" stroke="black" stroke-width="25"/>
<rect x="343.328" y="1004.98" width="289.515" height="289.515" rx="82.5" stroke="black" stroke-width="25"/>
<rect x="674.156" y="1004.98" width="289.515" height="289.515" rx="82.5" stroke="black" stroke-width="25"/>
<rect x="12.5" y="343.328" width="289.515" height="289.515" rx="82.5" stroke="black" stroke-width="25"/>
<rect x="343.328" y="343.328" width="289.515" height="289.515" rx="82.5" stroke="black" stroke-width="25"/>
<rect x="674.156" y="343.328" width="289.515" height="289.515" rx="82.5" stroke="black" stroke-width="25"/>
<rect x="1004.98" y="12.5" width="289.515" height="289.515" rx="82.5" stroke="black" stroke-width="25"/>
<rect x="1004.98" y="674.156" width="289.515" height="289.515" rx="82.5" stroke="black" stroke-width="25"/>
<rect x="1004.98" y="1004.98" width="289.515" height="289.515" rx="82.5" stroke="black" stroke-width="25"/>
<rect x="1004.98" y="343.328" width="289.515" height="289.515" rx="82.5" stroke="black" stroke-width="25"/>
</svg>
