<svg width="63" height="59" viewBox="0 0 63 59" fill="none" xmlns="http://www.w3.org/2000/svg">
<mask id="path-1-outside-1_14_111" maskUnits="userSpaceOnUse" x="0" y="0" width="63" height="59" fill="black">
<rect fill="white" width="63" height="59"/>
<path fill-rule="evenodd" clip-rule="evenodd" d="M55.4783 2C52.6807 2 50.4128 4.26789 50.4128 7.06547V23.3397L21.3852 23.3397V12.0042C21.4967 10.5787 21.0074 9.11504 19.9171 8.02475C17.9389 6.04656 14.7316 6.04656 12.7534 8.02475L3.48364 17.2945C1.50545 19.2727 1.50545 22.48 3.48364 24.4582C5.46183 26.4364 8.66912 26.4364 10.6473 24.4582L11.2542 23.8513V51.7925C11.2542 54.1735 13.1843 56.1036 15.5653 56.1036H56.2328C58.6137 56.1036 60.5438 54.1735 60.5438 51.7925L60.5438 23.3397V7.06547C60.5438 4.26789 58.2759 2 55.4783 2Z"/>
</mask>
<path fill-rule="evenodd" clip-rule="evenodd" d="M55.4783 2C52.6807 2 50.4128 4.26789 50.4128 7.06547V23.3397L21.3852 23.3397V12.0042C21.4967 10.5787 21.0074 9.11504 19.9171 8.02475C17.9389 6.04656 14.7316 6.04656 12.7534 8.02475L3.48364 17.2945C1.50545 19.2727 1.50545 22.48 3.48364 24.4582C5.46183 26.4364 8.66912 26.4364 10.6473 24.4582L11.2542 23.8513V51.7925C11.2542 54.1735 13.1843 56.1036 15.5653 56.1036H56.2328C58.6137 56.1036 60.5438 54.1735 60.5438 51.7925L60.5438 23.3397V7.06547C60.5438 4.26789 58.2759 2 55.4783 2Z" fill="white"/>
<path d="M50.4128 23.3397V25.3397H52.4128V23.3397H50.4128ZM21.3852 23.3397H19.3852V25.3397H21.3852V23.3397ZM21.3852 12.0042L19.3913 11.8481L19.3852 11.926V12.0042H21.3852ZM19.9171 8.02475L21.3313 6.61054V6.61054L19.9171 8.02475ZM12.7534 8.02475L14.1676 9.43897L12.7534 8.02475ZM3.48364 17.2945L4.89786 18.7087H4.89786L3.48364 17.2945ZM10.6473 24.4582L9.23309 23.044H9.23309L10.6473 24.4582ZM11.2542 23.8513H13.2542V19.0228L9.84001 22.437L11.2542 23.8513ZM60.5438 51.7925H62.5438H60.5438ZM60.5438 23.3397H58.5438H60.5438ZM52.4128 7.06547C52.4128 5.37246 53.7853 4 55.4783 4V0C51.5762 0 48.4128 3.16332 48.4128 7.06547H52.4128ZM52.4128 23.3397V7.06547H48.4128V23.3397H52.4128ZM21.3852 25.3397L50.4128 25.3397V21.3397L21.3852 21.3397V25.3397ZM19.3852 12.0042V23.3397H23.3852V12.0042H19.3852ZM18.5028 9.43896C19.1623 10.0984 19.4591 10.9808 19.3913 11.8481L23.3791 12.1602C23.5343 10.1766 22.8524 8.13166 21.3313 6.61054L18.5028 9.43896ZM14.1676 9.43897C15.3647 8.24182 17.3057 8.24182 18.5028 9.43896L21.3313 6.61054C18.572 3.8513 14.0984 3.8513 11.3392 6.61054L14.1676 9.43897ZM4.89786 18.7087L14.1676 9.43897L11.3392 6.61054L2.06943 15.8803L4.89786 18.7087ZM4.89786 23.044C3.70071 21.8468 3.70071 19.9059 4.89786 18.7087L2.06943 15.8803C-0.68981 18.6395 -0.689809 23.1131 2.06943 25.8724L4.89786 23.044ZM9.23309 23.044C8.03595 24.2411 6.095 24.2411 4.89786 23.044L2.06943 25.8724C4.82867 28.6316 9.30228 28.6316 12.0615 25.8724L9.23309 23.044ZM9.84001 22.437L9.23309 23.044L12.0615 25.8724L12.6684 25.2655L9.84001 22.437ZM13.2542 51.7925V23.8513H9.25422V51.7925H13.2542ZM15.5653 54.1036C14.2889 54.1036 13.2542 53.0689 13.2542 51.7925H9.25422C9.25422 55.278 12.0798 58.1036 15.5653 58.1036V54.1036ZM56.2328 54.1036H15.5653V58.1036H56.2328V54.1036ZM58.5438 51.7925C58.5438 53.0689 57.5091 54.1036 56.2328 54.1036V58.1036C59.7183 58.1036 62.5438 55.278 62.5438 51.7925H58.5438ZM58.5438 23.3397L58.5438 51.7925H62.5438L62.5438 23.3397H58.5438ZM58.5438 7.06547V23.3397H62.5438V7.06547H58.5438ZM55.4783 4C57.1713 4 58.5438 5.37246 58.5438 7.06547H62.5438C62.5438 3.16332 59.3805 0 55.4783 0V4Z" fill="black" mask="url(#path-1-outside-1_14_111)"/>
<path d="M38.0401 43.0918C37.4929 43.4638 36.7209 43.6793 35.899 43.6793C35.0771 43.6793 34.3051 43.4638 33.7579 43.0918L18.3259 32.5993C17.881 32.2969 17.7176 32.0061 17.6662 31.8035C17.6161 31.6061 17.6428 31.3807 17.795 31.1324C18.115 30.6104 19.0107 30.0159 20.4669 30.0159L51.3311 30.0159C52.7873 30.0159 53.683 30.6104 54.0029 31.1324C54.1552 31.3807 54.1819 31.6062 54.1318 31.8035C54.0804 32.0061 53.917 32.2969 53.4721 32.5993L38.0401 43.0918Z" fill="#3282B8" stroke="black" stroke-width="2"/>
</svg>
