<svg width="39" height="32" viewBox="0 0 39 32" fill="none" xmlns="http://www.w3.org/2000/svg">
<mask id="path-1-inside-1_44_26" fill="white">
<path d="M0.333313 2C0.333313 0.895433 1.22874 0 2.33331 0H36.3333C37.4379 0 38.3333 0.895431 38.3333 2V23.4694C38.3333 24.574 37.4379 25.4694 36.3333 25.4694H36.0651C35.5247 25.4694 35.0074 25.688 34.6308 26.0755L30.3075 30.5242C29.5221 31.3323 28.2244 31.3323 27.439 30.5242L23.1156 26.0755C22.7391 25.688 22.2217 25.4694 21.6814 25.4694H2.33331C1.22874 25.4694 0.333313 24.574 0.333313 23.4694V2Z"/>
</mask>
<path d="M6.71987 5.85714C6.16758 5.85714 5.71987 6.30486 5.71987 6.85714C5.71987 7.40943 6.16758 7.85714 6.71987 7.85714V5.85714ZM31.9468 7.85714C32.499 7.85714 32.9468 7.40943 32.9468 6.85714C32.9468 6.30486 32.499 5.85714 31.9468 5.85714V7.85714ZM6.71987 11.3265C6.16758 11.3265 5.71987 11.7742 5.71987 12.3265C5.71987 12.8788 6.16758 13.3265 6.71987 13.3265V11.3265ZM21.8333 13.3265C22.3856 13.3265 22.8333 12.8788 22.8333 12.3265C22.8333 11.7742 22.3856 11.3265 21.8333 11.3265V13.3265ZM6.71987 16.7143C6.16758 16.7143 5.71987 17.162 5.71987 17.7143C5.71987 18.2666 6.16758 18.7143 6.71987 18.7143V16.7143ZM12.3333 18.7143C12.8856 18.7143 13.3333 18.2666 13.3333 17.7143C13.3333 17.162 12.8856 16.7143 12.3333 16.7143V18.7143ZM26.8333 11.3265C26.281 11.3265 25.8333 11.7742 25.8333 12.3265C25.8333 12.8788 26.281 13.3265 26.8333 13.3265V11.3265ZM31.9468 13.3265C32.499 13.3265 32.9468 12.8788 32.9468 12.3265C32.9468 11.7742 32.499 11.3265 31.9468 11.3265V13.3265ZM17.2199 16.7143C16.6676 16.7143 16.2199 17.162 16.2199 17.7143C16.2199 18.2666 16.6676 18.7143 17.2199 18.7143V16.7143ZM31.9468 18.7143C32.499 18.7143 32.9468 18.2666 32.9468 17.7143C32.9468 17.162 32.499 16.7143 31.9468 16.7143V18.7143ZM6.71987 7.85714H31.9468V5.85714H6.71987V7.85714ZM6.71987 13.3265H21.8333V11.3265H6.71987V13.3265ZM6.71987 18.7143H12.3333V16.7143H6.71987V18.7143ZM26.8333 13.3265H31.9468V11.3265H26.8333V13.3265ZM17.2199 18.7143H31.9468V16.7143H17.2199V18.7143ZM27.439 30.5242L26.0047 31.918L27.439 30.5242ZM34.6308 26.0755L36.0651 27.4694L34.6308 26.0755ZM23.1156 26.0755L21.6814 27.4694L23.1156 26.0755ZM2.33331 2H36.3333V-2H2.33331V2ZM36.3333 2V23.4694H40.3333V2H36.3333ZM2.33331 23.4694V2H-1.66669V23.4694H2.33331ZM21.6814 23.4694H2.33331V27.4694H21.6814V23.4694ZM36.3333 23.4694H36.0651V27.4694H36.3333V23.4694ZM33.1965 24.6817L28.8732 29.1303L31.7418 31.918L36.0651 27.4694L33.1965 24.6817ZM28.8732 29.1303L24.5499 24.6817L21.6814 27.4694L26.0047 31.918L28.8732 29.1303ZM28.8732 29.1303L28.8732 29.1303L26.0047 31.918C27.5755 33.5344 30.171 33.5344 31.7418 31.918L28.8732 29.1303ZM36.0651 23.4694C34.9844 23.4694 33.9497 23.9067 33.1965 24.6817L36.0651 27.4694L36.0651 27.4694V23.4694ZM21.6814 27.4694L21.6814 27.4694L24.5499 24.6817C23.7968 23.9067 22.7621 23.4694 21.6814 23.4694V27.4694ZM-1.66669 23.4694C-1.66669 25.6785 0.124169 27.4694 2.33331 27.4694V23.4694L2.33331 23.4694H-1.66669ZM36.3333 23.4694L36.3333 23.4694V27.4694C38.5425 27.4694 40.3333 25.6785 40.3333 23.4694H36.3333ZM36.3333 2L36.3333 2H40.3333C40.3333 -0.209138 38.5425 -2 36.3333 -2V2ZM2.33331 -2C0.124171 -2 -1.66669 -0.209134 -1.66669 2H2.33331L2.33331 2V-2Z" fill="black" mask="url(#path-1-inside-1_44_26)"/>
</svg>
