<svg width="63" height="63" viewBox="0 0 63 63" fill="none" xmlns="http://www.w3.org/2000/svg">
<circle cx="31.5" cy="31.5" r="31" fill="#B9CE39" stroke="black"/>
<circle cx="31.5" cy="31.5" r="28.4" fill="#DFEC92" stroke="black"/>
<path fill-rule="evenodd" clip-rule="evenodd" d="M31.5333 8.59998C32.4538 8.59998 33.2 9.34617 33.2 10.2666V12.7467C34.8086 12.8294 36.3774 13.292 37.7766 14.0999C39.3272 14.9951 40.6148 16.2827 41.51 17.8333C41.9703 18.6305 41.6972 19.6498 40.9 20.11C40.1028 20.5703 39.0835 20.2971 38.6233 19.5C38.0206 18.4561 37.1538 17.5893 36.1099 16.9866C35.2176 16.4714 34.2229 16.1648 33.2 16.0866V29.8134C34.8086 29.8961 36.3774 30.3587 37.7766 31.1665C39.3272 32.0618 40.6148 33.3494 41.51 34.9C42.4053 36.4506 42.8766 38.2095 42.8766 40C42.8766 41.7905 42.4053 43.5494 41.51 45.1C40.6148 46.6506 39.3272 47.9382 37.7766 48.8334C36.3774 49.6413 34.8086 50.1039 33.2 50.1865V52.7333C33.2 53.6538 32.4538 54.4 31.5333 54.4C30.6129 54.4 29.8667 53.6538 29.8667 52.7333V50.1893C28.2383 50.1148 26.649 49.6508 25.2333 48.8335C23.6827 47.9382 22.3951 46.6506 21.4999 45.1C21.0396 44.3029 21.3128 43.2836 22.1099 42.8233C22.9071 42.3631 23.9264 42.6362 24.3866 43.4334C24.9893 44.4772 25.8561 45.3441 26.9 45.9467C27.8088 46.4714 28.8238 46.7798 29.8667 46.8508V33.1227C28.2383 33.0481 26.649 32.5841 25.2333 31.7668C23.6827 30.8716 22.3951 29.5839 21.4999 28.0333C20.6046 26.4828 20.1333 24.7238 20.1333 22.9333C20.1333 21.1429 20.6046 19.3839 21.4999 17.8333C22.3951 16.2827 23.6827 14.9951 25.2333 14.0999C26.649 13.2826 28.2383 12.8186 29.8667 12.744V10.2666C29.8667 9.34617 30.6129 8.59998 31.5333 8.59998ZM29.8667 16.0826C28.8238 16.1536 27.8088 16.462 26.9 16.9866C25.8561 17.5893 24.9893 18.4562 24.3866 19.5C23.7839 20.5439 23.4667 21.728 23.4667 22.9333C23.4667 24.1387 23.7839 25.3228 24.3866 26.3667C24.9893 27.4105 25.8561 28.2774 26.9 28.8801C27.8088 29.4047 28.8238 29.7131 29.8667 29.7842V16.0826ZM33.2 46.8467C34.2229 46.7685 35.2176 46.4618 36.1099 45.9467C37.1538 45.344 38.0206 44.4772 38.6233 43.4333C39.226 42.3895 39.5432 41.2053 39.5432 40C39.5432 38.7946 39.226 37.6105 38.6233 36.5667C38.0206 35.5228 37.1538 34.656 36.1099 34.0533C35.2176 33.5381 34.2229 33.2315 33.2 33.1533V46.8467Z" fill="#B9CE39" stroke="black" stroke-linecap="round"/>
</svg>
