<svg width="154" height="154" viewBox="0 0 154 154" fill="none" xmlns="http://www.w3.org/2000/svg">
<path d="M154 77C154 119.526 119.526 154 77 154C34.4741 154 0 119.526 0 77C0 34.4741 34.4741 0 77 0C119.526 0 154 34.4741 154 77ZM7.7 77C7.7 115.273 38.7267 146.3 77 146.3C115.273 146.3 146.3 115.273 146.3 77C146.3 38.7267 115.273 7.7 77 7.7C38.7267 7.7 7.7 38.7267 7.7 77Z" fill="#D9D9D9"/>
<path fill-rule="evenodd" clip-rule="evenodd" d="M77 107.92C69.0567 107.92 61.7499 105.535 56.6408 101.7C51.5798 97.9023 49.4189 93.3203 49.4189 89.2212C49.4189 87.0082 47.6249 85.2142 45.412 85.2142C43.199 85.2142 41.405 87.0082 41.405 89.2212C41.405 96.3021 45.1517 103.098 51.8306 108.11C58.5056 113.119 67.5591 115.934 77 115.934C86.4409 115.934 95.4944 113.119 102.169 108.11C108.848 103.098 112.595 96.3021 112.595 89.2212C112.595 87.0082 110.801 85.2142 108.588 85.2142C106.375 85.2142 104.581 87.0082 104.581 89.2212C104.581 93.3203 102.42 97.9023 97.3592 101.7C92.2501 105.535 84.9433 107.92 77 107.92Z" fill="#D9D9D9"/>
<path d="M63.7103 56.4311C63.7103 62.5167 58.7769 67.4501 52.6912 67.4501C46.6056 67.4501 41.6722 62.5167 41.6722 56.4311C41.6722 50.3454 46.6056 45.412 52.6912 45.412C58.7769 45.412 63.7103 50.3454 63.7103 56.4311Z" fill="#D9D9D9"/>
<path d="M112.461 56.4311C112.461 62.5167 107.528 67.4501 101.442 67.4501C95.3567 67.4501 90.4232 62.5167 90.4232 56.4311C90.4232 50.3454 95.3567 45.412 101.442 45.412C107.528 45.412 112.461 50.3454 112.461 56.4311Z" fill="#D9D9D9"/>
</svg>
