<svg width="34" height="31" viewBox="0 0 34 31" fill="none" xmlns="http://www.w3.org/2000/svg">
<path d="M16.1462 8.16934L16.1463 8.16947L17.1159 9.76115L17.9054 8.07322L17.9055 8.07295L17.9055 8.07293L17.9058 8.07237L17.9074 8.06912L17.9172 8.04858C17.9265 8.02929 17.9414 7.99897 17.9616 7.95857C18.0021 7.87776 18.0641 7.75681 18.1469 7.60334C18.3129 7.29607 18.5613 6.86042 18.8867 6.35678C19.5416 5.34297 20.4881 4.08497 21.676 3.04058C22.8659 1.99438 24.2413 1.21163 25.7642 1.03694C27.2478 0.866756 29.0085 1.25769 31.041 2.8042C33.099 4.80109 33.408 7.33494 32.5624 10.2356C31.6985 13.1989 29.6543 16.403 27.2348 19.4027C24.8283 22.3863 22.1127 25.0924 19.9912 27.0577C18.9321 28.0388 18.0249 28.8318 17.3836 29.3786C17.2424 29.499 17.1141 29.6074 17 29.7032C16.8859 29.6074 16.7576 29.499 16.6164 29.3786C15.9751 28.8318 15.0679 28.0388 14.0088 27.0577C11.8873 25.0924 9.17168 22.3863 6.76516 19.4027C4.34573 16.403 2.3015 13.1989 1.43761 10.2356C0.586703 7.31685 0.904906 4.76949 2.99776 2.76689C4.58103 1.25191 6.09853 0.86911 7.48916 1.03631C8.93683 1.21036 10.3761 1.99775 11.6961 3.0667C13.0061 4.12754 14.1216 5.40292 14.9161 6.42709C15.3112 6.93638 15.6219 7.37714 15.8327 7.68863C15.938 7.84424 16.0181 7.96721 16.071 8.04989C16.0784 8.06143 16.0852 8.07218 16.0916 8.08212C16.1079 8.1078 16.1206 8.12808 16.1297 8.14261L16.1432 8.16444L16.146 8.1689L16.146 8.16893L16.1462 8.16934Z" fill="white" stroke="black" stroke-width="2"/>
</svg>
