<svg width="28" height="23" viewBox="0 0 28 23" fill="none" xmlns="http://www.w3.org/2000/svg">
<path d="M27.4262 12.2656L24.0519 21.6848C23.8765 22.1742 23.4136 22.5 22.8957 22.5H8.67679C7.99916 22.5 7.44835 21.9495 7.44835 21.2685V10.8624C7.44835 10.5241 7.58717 10.2008 7.83196 9.96838L17.4375 0.846647C18.3533 -0.0229329 19.8324 0.891859 19.4553 2.10657L17.7115 7.72412C17.266 9.15919 18.3362 10.618 19.8395 10.618H26.2701C27.1192 10.618 27.7141 11.4621 27.4262 12.2656ZM1.72844 10.618H4.52852C5.20616 10.618 5.75697 11.1685 5.75697 11.8494V21.2685C5.75697 21.9495 5.20616 22.5 4.52852 22.5H1.72844C1.05081 22.5 0.5 21.9495 0.5 21.2685V11.8494C0.5 11.1685 1.05081 10.618 1.72844 10.618Z" fill="white" stroke="black"/>
</svg>
