<svg width="484" height="750" viewBox="0 0 484 750" fill="none" xmlns="http://www.w3.org/2000/svg">
<path fill-rule="evenodd" clip-rule="evenodd" d="M484 16.0872C330.054 62.7786 218 205.803 218 375C218 544.197 330.054 687.221 484 733.913C449.507 744.375 412.91 750 375 750C167.893 750 0 582.107 0 375C0 167.893 167.893 0 375 0C412.91 0 449.507 5.62549 484 16.0872ZM131 399C131 423.853 110.853 444 86 444C61.147 444 41 423.853 41 399C41 374.147 61.147 354 86 354C110.853 354 131 374.147 131 399ZM164.5 253C183.001 253 198 238.002 198 219.5C198 200.998 183.001 186 164.5 186C145.999 186 131 200.998 131 219.5C131 238.002 145.999 253 164.5 253ZM275 650.5C275 669.002 260.001 684 241.5 684C222.999 684 208 669.002 208 650.5C208 631.998 222.999 617 241.5 617C260.001 617 275 631.998 275 650.5ZM323 723C334.046 723 343 714.046 343 703C343 691.954 334.046 683 323 683C311.954 683 303 691.954 303 703C303 714.046 311.954 723 323 723ZM106 511C106 522.046 97.0459 531 86 531C74.9541 531 66 522.046 66 511C66 499.954 74.9541 491 86 491C97.0459 491 106 499.954 106 511ZM303 61C314.046 61 323 52.0457 323 41C323 29.9543 314.046 21 303 21C291.954 21 283 29.9543 283 41C283 52.0457 291.954 61 303 61Z" fill="#CFFA62"/>
</svg>
