<svg width="35" height="40" viewBox="0 0 35 40" fill="none" xmlns="http://www.w3.org/2000/svg">
<path d="M26.0079 9.48454C26.0079 10.5984 25.7879 11.7014 25.3606 12.7306C24.9332 13.7598 24.3068 14.6952 23.5168 15.4831C22.7269 16.2711 21.789 16.8963 20.7566 17.3229C19.7242 17.7495 18.6176 17.9691 17.5 17.9691C16.3824 17.9691 15.2758 17.7495 14.2434 17.3229C13.211 16.8963 12.2731 16.2711 11.4832 15.4831C10.6932 14.6952 10.0668 13.7598 9.63942 12.7306C9.21205 11.7014 8.99213 10.5984 8.99213 9.48454C8.99213 8.37067 9.21205 7.26766 9.63942 6.23845C10.0668 5.20923 10.6932 4.2739 11.4832 3.48593C12.2731 2.69795 13.211 2.07276 14.2434 1.64618C15.2758 1.21959 16.3824 1 17.5 1C18.6176 1 19.7242 1.21959 20.7566 1.64618C21.789 2.07276 22.7269 2.69795 23.5168 3.48593C24.3068 4.27391 24.9332 5.20923 25.3606 6.23845C25.7879 7.26766 26.0079 8.37067 26.0079 9.48454ZM33.9695 39H1.03049C1.1415 37.1811 1.55479 35.3909 2.25565 33.703C3.08466 31.7065 4.29982 29.8923 5.83187 28.364C7.36392 26.8357 9.18287 25.6232 11.1849 24.796C13.187 23.9688 15.3328 23.543 17.5 23.543C19.6672 23.543 21.813 23.9688 23.8151 24.796C25.8171 25.6232 27.6361 26.8357 29.1681 28.364C30.7002 29.8923 31.9153 31.7065 32.7443 33.703C33.4452 35.3909 33.8585 37.1811 33.9695 39Z" fill="#BBE1FA" stroke="black" stroke-width="2"/>
</svg>
