<svg width="154" height="154" viewBox="0 0 154 154" fill="none" xmlns="http://www.w3.org/2000/svg">
<path d="M56.6408 99.4479C61.7499 95.6137 69.0567 93.2281 77 93.2281C84.9433 93.2281 92.2501 95.6137 97.3592 99.4479C102.42 103.246 104.581 107.828 104.581 111.927C104.581 114.14 106.375 115.934 108.588 115.934C110.801 115.934 112.595 114.14 112.595 111.927C112.595 104.846 108.848 98.0506 102.169 93.0383C95.4944 88.0289 86.4409 85.2142 77 85.2142C67.5591 85.2142 58.5056 88.0289 51.8306 93.0383C45.1517 98.0506 41.405 104.846 41.405 111.927C41.405 114.14 43.199 115.934 45.412 115.934C47.6249 115.934 49.4189 114.14 49.4189 111.927C49.4189 107.828 51.5798 103.246 56.6408 99.4479Z" fill="#D8D8D8"/>
<path d="M63.7103 56.4311C63.7103 62.5167 58.7769 67.4501 52.6912 67.4501C46.6056 67.4501 41.6722 62.5167 41.6722 56.4311C41.6722 50.3454 46.6056 45.412 52.6912 45.412C58.7769 45.412 63.7103 50.3454 63.7103 56.4311Z" fill="#D8D8D8"/>
<path d="M101.442 67.4501C107.528 67.4501 112.461 62.5167 112.461 56.4311C112.461 50.3454 107.528 45.412 101.442 45.412C95.3567 45.412 90.4232 50.3454 90.4232 56.4311C90.4232 62.5167 95.3567 67.4501 101.442 67.4501Z" fill="#D8D8D8"/>
<path fill-rule="evenodd" clip-rule="evenodd" d="M77 154C119.526 154 154 119.526 154 77C154 34.4741 119.526 0 77 0C34.4741 0 0 34.4741 0 77C0 119.526 34.4741 154 77 154ZM77 146.3C38.7267 146.3 7.7 115.273 7.7 77C7.7 38.7267 38.7267 7.7 77 7.7C115.273 7.7 146.3 38.7267 146.3 77C146.3 115.273 115.273 146.3 77 146.3Z" fill="#D8D8D8"/>
</svg>
