<svg width="28" height="27" viewBox="0 0 28 27" fill="none" xmlns="http://www.w3.org/2000/svg">
<path d="M12.8816 0.82032C13.2336 -0.273441 14.7664 -0.27344 15.1184 0.820321L17.6172 8.58378C17.7746 9.07293 18.2262 9.4041 18.7356 9.4041H26.8217C27.961 9.4041 28.4346 10.8757 27.513 11.5517L20.9712 16.3498C20.559 16.6521 20.3865 17.188 20.544 17.6771L23.0427 25.4406C23.3948 26.5343 22.1547 27.4439 21.233 26.7679L14.6912 21.9698C14.2791 21.6675 13.7209 21.6675 13.3088 21.9698L6.76696 26.7679C5.84531 27.4439 4.60525 26.5343 4.95728 25.4406L7.45603 17.6771C7.61347 17.188 7.441 16.6521 7.02882 16.3498L0.487019 11.5517C-0.434629 10.8757 0.0390358 9.4041 1.17825 9.4041H9.26437C9.77384 9.4041 10.2254 9.07293 10.3828 8.58378L12.8816 0.82032Z" fill="#3282B8"/>
</svg>
