<svg width="1157" height="1157" viewBox="0 0 1157 1157" fill="none" xmlns="http://www.w3.org/2000/svg">
<mask id="path-1-outside-1_177_42" maskUnits="userSpaceOnUse" x="0.5" y="0.5" width="1156" height="1156" fill="black">
<rect fill="white" x="0.5" y="0.5" width="1156" height="1156"/>
<path fill-rule="evenodd" clip-rule="evenodd" d="M578.5 10.5C615.779 10.5 646 40.7208 646 78V239.64C691.123 248.714 732.994 266.774 769.667 291.873L884.677 176.863C911.037 150.503 953.776 150.503 980.136 176.863C1006.5 203.224 1006.5 245.962 980.136 272.323L863.707 388.752C887.147 425.295 903.745 466.647 911.691 511H1079C1116.28 511 1146.5 541.221 1146.5 578.5C1146.5 615.779 1116.28 646 1079 646H908.65C899.063 688.316 881.537 727.619 857.72 762.261L980.136 884.677C1006.5 911.038 1006.5 953.776 980.136 980.137C953.776 1006.5 911.037 1006.5 884.677 980.137L760.638 856.097C726.177 878.098 687.461 894.022 646 902.36V1079C646 1116.28 615.779 1146.5 578.5 1146.5C541.221 1146.5 511 1116.28 511 1079V902.157C469.672 893.716 431.089 877.732 396.752 855.707L272.322 980.137C245.962 1006.5 203.223 1006.5 176.863 980.137C150.503 953.776 150.503 911.038 176.863 884.677L299.873 761.667C276.264 727.171 258.883 688.075 249.35 646H78C40.7208 646 10.5 615.779 10.5 578.5C10.5 541.221 40.7208 511 78 511H246.309C254.211 466.894 270.668 425.755 293.903 389.362L176.863 272.323C150.503 245.962 150.503 203.224 176.863 176.863C203.224 150.503 245.962 150.503 272.323 176.863L387.739 292.28C424.283 267.155 466.015 249.031 511 239.843V78C511 40.7208 541.221 10.5 578.5 10.5Z"/>
</mask>
<path fill-rule="evenodd" clip-rule="evenodd" d="M578.5 10.5C615.779 10.5 646 40.7208 646 78V239.64C691.123 248.714 732.994 266.774 769.667 291.873L884.677 176.863C911.037 150.503 953.776 150.503 980.136 176.863C1006.5 203.224 1006.5 245.962 980.136 272.323L863.707 388.752C887.147 425.295 903.745 466.647 911.691 511H1079C1116.28 511 1146.5 541.221 1146.5 578.5C1146.5 615.779 1116.28 646 1079 646H908.65C899.063 688.316 881.537 727.619 857.72 762.261L980.136 884.677C1006.5 911.038 1006.5 953.776 980.136 980.137C953.776 1006.5 911.037 1006.5 884.677 980.137L760.638 856.097C726.177 878.098 687.461 894.022 646 902.36V1079C646 1116.28 615.779 1146.5 578.5 1146.5C541.221 1146.5 511 1116.28 511 1079V902.157C469.672 893.716 431.089 877.732 396.752 855.707L272.322 980.137C245.962 1006.5 203.223 1006.5 176.863 980.137C150.503 953.776 150.503 911.038 176.863 884.677L299.873 761.667C276.264 727.171 258.883 688.075 249.35 646H78C40.7208 646 10.5 615.779 10.5 578.5C10.5 541.221 40.7208 511 78 511H246.309C254.211 466.894 270.668 425.755 293.903 389.362L176.863 272.323C150.503 245.962 150.503 203.224 176.863 176.863C203.224 150.503 245.962 150.503 272.323 176.863L387.739 292.28C424.283 267.155 466.015 249.031 511 239.843V78C511 40.7208 541.221 10.5 578.5 10.5Z" fill="#FFA648"/>
<path d="M646 239.64H636C636 244.403 639.359 248.505 644.029 249.444L646 239.64ZM769.667 291.873L764.019 300.125C767.991 302.844 773.335 302.347 776.738 298.944L769.667 291.873ZM980.136 176.863L973.065 183.934L973.065 183.934L980.136 176.863ZM980.136 272.323L987.207 279.394L987.207 279.394L980.136 272.323ZM863.707 388.752L856.636 381.681C853.312 385.005 852.752 390.195 855.29 394.152L863.707 388.752ZM911.691 511L901.847 512.763C902.701 517.53 906.848 521 911.691 521V511ZM908.65 646V636C903.978 636 899.929 639.234 898.897 643.79L908.65 646ZM857.72 762.261L849.48 756.595C846.748 760.568 847.24 765.923 850.649 769.332L857.72 762.261ZM980.136 884.677L987.208 877.606L987.208 877.606L980.136 884.677ZM980.136 980.137L987.208 987.208L987.208 987.208L980.136 980.137ZM884.677 980.137L877.606 987.208L877.606 987.208L884.677 980.137ZM760.638 856.097L767.709 849.026C764.39 845.708 759.212 845.143 755.256 847.669L760.638 856.097ZM646 902.36L644.029 892.556C639.359 893.495 636 897.597 636 902.36H646ZM511 902.157H521C521 897.406 517.657 893.311 513.001 892.36L511 902.157ZM396.752 855.707L402.152 847.29C398.195 844.752 393.005 845.312 389.681 848.636L396.752 855.707ZM272.322 980.137L265.251 973.066L265.251 973.066L272.322 980.137ZM176.863 980.137L169.792 987.208L169.792 987.208L176.863 980.137ZM176.863 884.677L183.934 891.748L183.934 891.748L176.863 884.677ZM299.873 761.667L306.944 768.738C310.347 765.335 310.844 759.991 308.125 756.019L299.873 761.667ZM249.35 646L259.103 643.79C258.071 639.234 254.022 636 249.35 636V646ZM246.309 511V521C251.152 521 255.299 517.53 256.153 512.763L246.309 511ZM293.903 389.362L302.332 394.744C304.857 390.788 304.292 385.609 300.974 382.291L293.903 389.362ZM176.863 272.323L183.934 265.252L183.934 265.252L176.863 272.323ZM176.863 176.863L183.934 183.934L183.934 183.934L176.863 176.863ZM272.323 176.863L265.252 183.934L265.252 183.934L272.323 176.863ZM387.739 292.28L380.668 299.351C384.077 302.76 389.432 303.252 393.405 300.52L387.739 292.28ZM511 239.843L513.001 249.64C517.657 248.69 521 244.594 521 239.843H511ZM656 78C656 35.1979 621.302 0.5 578.5 0.5V20.5C610.256 20.5 636 46.2436 636 78H656ZM656 239.64V78H636V239.64H656ZM775.315 283.621C737.558 257.78 694.441 239.181 647.971 229.836L644.029 249.444C687.804 258.247 728.43 275.768 764.019 300.125L775.315 283.621ZM776.738 298.944L891.748 183.934L877.606 169.792L762.596 284.802L776.738 298.944ZM891.748 183.934C914.203 161.479 950.61 161.479 973.065 183.934L987.207 169.792C956.942 139.527 907.871 139.527 877.606 169.792L891.748 183.934ZM973.065 183.934C995.52 206.39 995.52 242.797 973.065 265.252L987.207 279.394C1017.47 249.128 1017.47 200.058 987.207 169.792L973.065 183.934ZM973.065 265.252L856.636 381.681L870.778 395.823L987.207 279.394L973.065 265.252ZM921.534 509.237C913.351 463.561 896.258 420.978 872.124 383.353L855.29 394.152C878.036 429.613 894.139 469.734 901.847 512.763L921.534 509.237ZM1079 501H911.691V521H1079V501ZM1156.5 578.5C1156.5 535.698 1121.8 501 1079 501V521C1110.76 521 1136.5 546.744 1136.5 578.5H1156.5ZM1079 656C1121.8 656 1156.5 621.302 1156.5 578.5H1136.5C1136.5 610.256 1110.76 636 1079 636V656ZM908.65 656H1079V636H908.65V656ZM865.96 767.926C890.48 732.262 908.529 691.79 918.403 648.21L898.897 643.79C889.596 684.843 872.593 722.977 849.48 756.595L865.96 767.926ZM987.208 877.606L864.791 755.19L850.649 769.332L973.065 891.748L987.208 877.606ZM987.208 987.208C1017.47 956.942 1017.47 907.872 987.208 877.606L973.065 891.748C995.521 914.203 995.521 950.61 973.065 973.066L987.208 987.208ZM877.606 987.208C907.872 1017.47 956.942 1017.47 987.208 987.208L973.065 973.066C950.61 995.521 914.203 995.521 891.748 973.066L877.606 987.208ZM753.566 863.168L877.606 987.208L891.748 973.066L767.709 849.026L753.566 863.168ZM647.971 912.164C690.67 903.577 730.538 887.178 766.019 864.526L755.256 847.669C721.815 869.018 684.252 884.467 644.029 892.556L647.971 912.164ZM656 1079V902.36H636V1079H656ZM578.5 1156.5C621.302 1156.5 656 1121.8 656 1079H636C636 1110.76 610.256 1136.5 578.5 1136.5V1156.5ZM501 1079C501 1121.8 535.698 1156.5 578.5 1156.5V1136.5C546.744 1136.5 521 1110.76 521 1079H501ZM501 902.157V1079H521V902.157H501ZM391.353 864.124C426.706 886.801 466.437 903.262 508.999 911.955L513.001 892.36C472.906 884.17 435.472 868.663 402.152 847.29L391.353 864.124ZM389.681 848.636L265.251 973.066L279.394 987.208L403.823 862.778L389.681 848.636ZM265.251 973.066C242.796 995.521 206.389 995.521 183.934 973.066L169.792 987.208C200.058 1017.47 249.128 1017.47 279.394 987.208L265.251 973.066ZM183.934 973.066C161.479 950.61 161.479 914.203 183.934 891.748L169.792 877.606C139.526 907.872 139.526 956.942 169.792 987.208L183.934 973.066ZM183.934 891.748L306.944 768.738L292.802 754.596L169.792 877.606L183.934 891.748ZM239.597 648.209C249.414 691.541 267.314 731.8 291.621 767.315L308.125 756.019C285.213 722.542 268.351 684.609 259.103 643.79L239.597 648.209ZM78 656H249.35V636H78V656ZM0.5 578.5C0.5 621.302 35.198 656 78 656V636C46.2437 636 20.5 610.256 20.5 578.5H0.5ZM78 501C35.198 501 0.5 535.698 0.5 578.5H20.5C20.5 546.744 46.2437 521 78 521V501ZM246.309 501H78V521H246.309V501ZM285.474 383.981C261.552 421.451 244.603 463.815 236.466 509.237L256.153 512.763C263.819 469.973 279.785 430.059 302.332 394.744L285.474 383.981ZM169.792 279.394L286.832 396.434L300.974 382.291L183.934 265.252L169.792 279.394ZM169.792 169.792C139.526 200.058 139.526 249.128 169.792 279.394L183.934 265.252C161.479 242.797 161.479 206.39 183.934 183.934L169.792 169.792ZM279.394 169.792C249.128 139.527 200.058 139.527 169.792 169.792L183.934 183.934C206.389 161.479 242.796 161.479 265.252 183.934L279.394 169.792ZM394.81 285.209L279.394 169.792L265.252 183.934L380.668 299.351L394.81 285.209ZM508.999 230.045C462.671 239.508 419.697 258.173 382.074 284.04L393.405 300.52C428.869 276.138 469.36 258.554 513.001 249.64L508.999 230.045ZM501 78V239.843H521V78H501ZM578.5 0.5C535.698 0.5 501 35.1979 501 78H521C521 46.2436 546.744 20.5 578.5 20.5V0.5Z" fill="#EF261B" mask="url(#path-1-outside-1_177_42)"/>
<circle cx="579" cy="578" r="269" fill="#FFD751" stroke="#EF261B" stroke-width="10"/>
<circle cx="579" cy="578" r="183" fill="#E8FF51" stroke="#EF261B" stroke-width="10"/>
</svg>
